<svg xmlns="http://www.w3.org/2000/svg" aria-hidden="true" style="position:absolute;width:0;height:0;overflow:hidden">
    <rect width="16" height="16" rx="2"/>
    <path fill="#1c1d20" d="M6.667 0h18.667a6.667 6.667 0 0 1 6.667 6.667v18.667a6.667 6.667 0 0 1-6.667 6.667H6.667A6.667 6.667 0 0 1 0 25.334V6.667A6.667 6.667 0 0 1 6.667 0z" style="fill:var(--color1, #1c1d20)"/>
    <path fill="#fafafa" d="M12.432 20.797a3.613 3.613 0 0 1-1.484-.293c-.438-.2-.786-.49-1.042-.872s-.384-.846-.384-1.393v-.189h1.452v.189c0 .265.061.497.182.697.126.2.297.354.514.462.221.104.475.156.762.156.308 0 .571-.065.788-.195s.382-.321.495-.573c.113-.256.169-.569.169-.937v-6.882h1.452v6.882c0 .621-.119 1.152-.358 1.595a2.415 2.415 0 0 1-1.003 1.009c-.434.23-.948.345-1.543.345zm6.101-4.375.091-1.999-1.68 1.087-.521-.898 1.784-.911-1.784-.911.521-.911 1.68 1.087-.091-1.999h1.029l-.091 1.999 1.68-1.087.521.911-1.784.911 1.784.911-.521.898-1.68-1.087.091 1.999h-1.029z" style="fill:var(--color2, #fafafa)"/>
  </svg>